<?xml version="1.0" encoding="UTF-8" standalone="no"?>
<svg
   xmlns:dc="http://purl.org/dc/elements/1.1/"
   xmlns:cc="http://creativecommons.org/ns#"
   xmlns:rdf="http://www.w3.org/1999/02/22-rdf-syntax-ns#"
   xmlns:svg="http://www.w3.org/2000/svg"
   xmlns="http://www.w3.org/2000/svg"
   id="svg805"
   version="1.1"
   viewBox="0 0 210 297"
   height="297mm"
   width="210mm">
  <defs
     id="defs799">
    <clipPath
       clipPathUnits="userSpaceOnUse"
       id="clipPath362">
      <path
         d="m 4018.55,3428.23 c -3.97,0.13 -7.83,0.21 -11.59,0.21 -2.22,5.23 -22.59,53.71 -26.54,80.31 7.88,-17.89 21.41,-47.66 38.13,-80.52"
         id="path360" />
    </clipPath>
    <radialGradient
       fx="0"
       fy="0"
       cx="0"
       cy="0"
       r="1"
       gradientUnits="userSpaceOnUse"
       gradientTransform="matrix(3535.53,0,0,-3535.53,4360,3360)"
       spreadMethod="pad"
       id="radialGradient368">
      <stop
         style="stop-opacity:1;stop-color:#999999"
         offset="0"
         id="stop364" />
      <stop
         style="stop-opacity:1;stop-color:#949494"
         offset="1"
         id="stop366" />
    </radialGradient>
    <clipPath
       clipPathUnits="userSpaceOnUse"
       id="clipPath338">
      <path
         d="m 3943.49,3407.14 c -0.58,12.26 15.34,17.91 37.21,19.95 -20.38,-2.48 -34.2,-8.56 -37.21,-19.95"
         id="path336" />
    </clipPath>
    <radialGradient
       fx="0"
       fy="0"
       cx="0"
       cy="0"
       r="1"
       gradientUnits="userSpaceOnUse"
       gradientTransform="matrix(3535.53,0,0,-3535.53,4360,3360)"
       spreadMethod="pad"
       id="radialGradient344">
      <stop
         style="stop-opacity:1;stop-color:#999999"
         offset="0"
         id="stop340" />
      <stop
         style="stop-opacity:1;stop-color:#949494"
         offset="1"
         id="stop342" />
    </radialGradient>
    <clipPath
       clipPathUnits="userSpaceOnUse"
       id="clipPath298">
      <path
         d="m 3931.72,4241.3 c -0.32,0.16 -0.63,0.32 -0.94,0.49 0.31,-0.17 0.62,-0.33 0.94,-0.49 m -0.95,0.49 c -1.27,0.67 -2.52,1.35 -3.76,2.06 1.26,-0.71 2.52,-1.4 3.76,-2.06 m 17.26,2.66 c 0.29,11.16 1.64,30.27 6.87,50.61 l 3.75,-4.7 c 0,0 -3.17,-31.69 -10.62,-45.91 m -102.65,96.91 c -0.09,0.2 -0.13,0.3 -0.13,0.3 0.02,-0.03 0.04,-0.05 0.06,-0.08 0.02,-0.07 0.05,-0.15 0.07,-0.22"
         id="path296" />
    </clipPath>
    <radialGradient
       fx="0"
       fy="0"
       cx="0"
       cy="0"
       r="1"
       gradientUnits="userSpaceOnUse"
       gradientTransform="matrix(3535.53,0,0,-3535.53,4360,3360)"
       spreadMethod="pad"
       id="radialGradient304">
      <stop
         style="stop-opacity:1;stop-color:#bfbfbf"
         offset="0"
         id="stop300" />
      <stop
         style="stop-opacity:1;stop-color:#b8b8b8"
         offset="1"
         id="stop302" />
    </radialGradient>
    <clipPath
       clipPathUnits="userSpaceOnUse"
       id="clipPath280">
      <path
         d="m 4677.63,4310.49 c 15.29,23.73 26.92,55.54 24.49,96.36 2.82,4.93 4.43,7.98 4.43,7.98 9.58,-39.89 -7.4,-76.34 -28.92,-104.34"
         id="path278" />
    </clipPath>
    <radialGradient
       fx="0"
       fy="0"
       cx="0"
       cy="0"
       r="1"
       gradientUnits="userSpaceOnUse"
       gradientTransform="matrix(3535.53,0,0,-3535.53,4360,3360)"
       spreadMethod="pad"
       id="radialGradient286">
      <stop
         style="stop-opacity:1;stop-color:#bfbfbf"
         offset="0"
         id="stop282" />
      <stop
         style="stop-opacity:1;stop-color:#b8b8b8"
         offset="1"
         id="stop284" />
    </radialGradient>
    <clipPath
       clipPathUnits="userSpaceOnUse"
       id="clipPath262">
      <path
         d="m 4121.56,2794.67 c 14.93,8.71 33.9,25.08 52.03,55.83 0.63,0.02 1.31,0.04 1.94,0.06 -14.27,-26.96 -32.01,-47.72 -53.97,-55.89"
         id="path260" />
    </clipPath>
    <radialGradient
       fx="0"
       fy="0"
       cx="0"
       cy="0"
       r="1"
       gradientUnits="userSpaceOnUse"
       gradientTransform="matrix(3535.53,0,0,-3535.53,4360,3360)"
       spreadMethod="pad"
       id="radialGradient268">
      <stop
         style="stop-opacity:1;stop-color:#afafaf"
         offset="0"
         id="stop264" />
      <stop
         style="stop-opacity:1;stop-color:#a9a9a9"
         offset="1"
         id="stop266" />
    </radialGradient>
    <clipPath
       clipPathUnits="userSpaceOnUse"
       id="clipPath246">
      <path
         d="m 4173.59,2850.5 c 6.42,10.89 12.74,23.6 18.73,38.4 -4.98,-13.61 -10.55,-26.56 -16.79,-38.34 -0.63,-0.02 -1.31,-0.04 -1.94,-0.06"
         id="path244" />
    </clipPath>
    <radialGradient
       fx="0"
       fy="0"
       cx="0"
       cy="0"
       r="1"
       gradientUnits="userSpaceOnUse"
       gradientTransform="matrix(3535.53,0,0,-3535.53,4360,3360)"
       spreadMethod="pad"
       id="radialGradient252">
      <stop
         style="stop-opacity:1;stop-color:#bfbfbf"
         offset="0"
         id="stop248" />
      <stop
         style="stop-opacity:1;stop-color:#b8b8b8"
         offset="1"
         id="stop250" />
    </radialGradient>
    <clipPath
       clipPathUnits="userSpaceOnUse"
       id="clipPath228">
      <path
         d="m 4567.21,2794.35 c -5.24,0 -10.68,1.6 -16.01,4.13 4.04,-1.52 8.18,-2.54 12.43,-3.02 0,0 21.86,7.45 45.47,34.62 -8.03,-11.93 -17.25,-22.41 -27.83,-30.84 -4.32,-3.45 -9.1,-4.89 -14.06,-4.89"
         id="path226" />
    </clipPath>
    <radialGradient
       fx="0"
       fy="0"
       cx="0"
       cy="0"
       r="1"
       gradientUnits="userSpaceOnUse"
       gradientTransform="matrix(3535.53,0,0,-3535.53,4360,3360)"
       spreadMethod="pad"
       id="radialGradient234">
      <stop
         style="stop-opacity:1;stop-color:#afafaf"
         offset="0"
         id="stop230" />
      <stop
         style="stop-opacity:1;stop-color:#a9a9a9"
         offset="1"
         id="stop232" />
    </radialGradient>
    <clipPath
       clipPathUnits="userSpaceOnUse"
       id="clipPath210">
      <path
         d="m 4517.19,3859.53 c 0,0 72.75,126.5 91.88,239.3 -9.87,-76.58 -35.02,-163.79 -91.88,-239.3 v 0"
         id="path208" />
    </clipPath>
    <radialGradient
       fx="0"
       fy="0"
       cx="0"
       cy="0"
       r="1"
       gradientUnits="userSpaceOnUse"
       gradientTransform="matrix(3535.53,0,0,-3535.53,4360,3360)"
       spreadMethod="pad"
       id="radialGradient216">
      <stop
         style="stop-opacity:1;stop-color:#bfbfbf"
         offset="0"
         id="stop212" />
      <stop
         style="stop-opacity:1;stop-color:#b8b8b8"
         offset="1"
         id="stop214" />
    </radialGradient>
    <clipPath
       clipPathUnits="userSpaceOnUse"
       id="clipPath190">
      <path
         d="m 4704.71,3521.87 c 39.73,19.87 85.77,71.49 52.42,205.54 0,0 37.44,-57.33 7.56,-144.72 -12.95,-37.98 -35.99,-54.78 -59.98,-60.82"
         id="path188" />
    </clipPath>
    <radialGradient
       fx="0"
       fy="0"
       cx="0"
       cy="0"
       r="1"
       gradientUnits="userSpaceOnUse"
       gradientTransform="matrix(3535.53,0,0,-3535.53,4360,3360)"
       spreadMethod="pad"
       id="radialGradient196">
      <stop
         style="stop-opacity:1;stop-color:#bfbfbf"
         offset="0"
         id="stop192" />
      <stop
         style="stop-opacity:1;stop-color:#b8b8b8"
         offset="1"
         id="stop194" />
    </radialGradient>
    <clipPath
       clipPathUnits="userSpaceOnUse"
       id="clipPath170">
      <path
         d="m 4084.92,3242.13 v 0 l 9.04,62.11 c 0.16,-0.21 0.33,-0.43 0.5,-0.64 4.9,-6.18 -0.14,-28.79 -9.54,-61.47"
         id="path168" />
    </clipPath>
    <radialGradient
       fx="0"
       fy="0"
       cx="0"
       cy="0"
       r="1"
       gradientUnits="userSpaceOnUse"
       gradientTransform="matrix(3535.53,0,0,-3535.53,4360,3360)"
       spreadMethod="pad"
       id="radialGradient176">
      <stop
         style="stop-opacity:1;stop-color:#bfbfbf"
         offset="0"
         id="stop172" />
      <stop
         style="stop-opacity:1;stop-color:#b8b8b8"
         offset="1"
         id="stop174" />
    </radialGradient>
    <clipPath
       clipPathUnits="userSpaceOnUse"
       id="clipPath148">
      <path
         d="m 4329.27,2703.66 c -330.03,0 -597.69,33.39 -597.69,74.7 0,27.87 122.37,52.21 303.67,65.04 11.75,-25.6 30.42,-46.01 58.31,-58.65 0,0 11.54,0.3 28,9.92 21.96,8.17 39.7,28.93 53.97,55.89 49.07,1.63 100.58,2.5 153.74,2.5 59.24,0 116.45,-1.08 170.47,-3.08 14.6,-24.89 31.71,-44.09 51.46,-51.5 5.33,-2.53 10.77,-4.13 16.01,-4.13 4.96,0 9.74,1.44 14.06,4.89 10.58,8.43 19.8,18.91 27.83,30.84 3.54,4.06 7.12,8.58 10.66,13.57 183.26,-12.77 307.2,-37.24 307.2,-65.29 0,-41.31 -267.57,-74.7 -597.69,-74.7"
         id="path146" />
    </clipPath>
    <radialGradient
       fx="0"
       fy="0"
       cx="0"
       cy="0"
       r="1"
       gradientUnits="userSpaceOnUse"
       gradientTransform="matrix(3535.53,0,0,-3535.53,4360,3360)"
       spreadMethod="pad"
       id="radialGradient154">
      <stop
         style="stop-opacity:1;stop-color:#e9e9e9"
         offset="0"
         id="stop150" />
      <stop
         style="stop-opacity:1;stop-color:#e2e2e2"
         offset="1"
         id="stop152" />
    </radialGradient>
  </defs>
  <metadata
     id="metadata802">
    <rdf:RDF>
      <cc:Work
         rdf:about="">
        <dc:format>image/svg+xml</dc:format>
        <dc:type
           rdf:resource="http://purl.org/dc/dcmitype/StillImage" />
        <dc:title></dc:title>
      </cc:Work>
    </rdf:RDF>
  </metadata>
  <g
     style="opacity:1"
     id="layer1">
    <g
       transform="matrix(0.13123619,0,0,-0.13123619,-467.97815,640.76269)"
       style="display:inline"
       id="g142">
      <g
         id="g144"
         clip-path="url(#clipPath148)">
        <path
           d="m 4329.27,2703.66 c -330.03,0 -597.69,33.39 -597.69,74.7 0,27.87 122.37,52.21 303.67,65.04 11.75,-25.6 30.42,-46.01 58.31,-58.65 0,0 11.54,0.3 28,9.92 21.96,8.17 39.7,28.93 53.97,55.89 49.07,1.63 100.58,2.5 153.74,2.5 59.24,0 116.45,-1.08 170.47,-3.08 14.6,-24.89 31.71,-44.09 51.46,-51.5 5.33,-2.53 10.77,-4.13 16.01,-4.13 4.96,0 9.74,1.44 14.06,4.89 10.58,8.43 19.8,18.91 27.83,30.84 3.54,4.06 7.12,8.58 10.66,13.57 183.26,-12.77 307.2,-37.24 307.2,-65.29 0,-41.31 -267.57,-74.7 -597.69,-74.7"
           style="fill:url(#radialGradient154);fill-opacity:1;fill-rule:nonzero;stroke:none"
           id="path156" />
      </g>
    </g>
    <path
       d="m 53.406097,177.98986 c 0,0 7.99622,19.24051 15.957006,29.22105 3.082738,3.88588 -23.79968,57.35545 -0.118115,68.09186 0,0 15.519991,-0.40157 18.130277,-40.07556 0,0 18.094835,6.15364 26.362715,3.38981 0,0 5.25602,33.93375 17.19718,35.28024 0,0 27.13047,-9.23641 4.64183,-74.5881 0,0 6.79148,-10.03957 7.80725,-19.11061 0,0 19.99645,-0.26004 12.94513,-28.60687 0,0 -9.20096,-18.88617 -31.48882,-17.33892 0,0 11.43331,-19.87832 12.56719,-35.528212 0,0 10.86635,-52.193963 -47.741088,-50.26871 0,0 -46.25288,7.275733 -37.453495,50.68207 0,0 10.937223,27.508412 17.232623,31.252592 0,0 -4.641824,2.97643 -10.771866,7.85446 -5.055217,4.03946 -26.976908,12.42544 -20.492529,30.66203 4.098508,11.53961 16.429457,10.6065 16.429457,10.6065 l -1.204747,-1.52363"
       style="display:inline;fill:#a67c52;fill-opacity:1;fill-rule:nonzero;stroke:none;stroke-width:0.131236"
       id="path158" />
    <path
       d="M 62.512576,60.656846 C 59.713307,57.467807 45.386255,48.455838 38.240444,59.676531 31.094635,70.897223 43.142116,82.814754 50.146191,85.0589 c 0,0 -0.425207,-9.366309 4.24024,-14.893974 4.653635,-5.527669 8.126145,-9.50808 8.126145,-9.50808"
       style="display:inline;fill:#8c6239;fill-opacity:1;fill-rule:nonzero;stroke:none;stroke-width:0.131236"
       id="path160" />
    <path
       d="m 146.19531,51.349577 c -2.66934,-5.964666 -16.08694,-7.771807 -23.25636,4.61822 0,0 8.14976,7.004055 10.31123,11.823048 2.17326,4.818986 4.87804,14.586916 4.87804,14.586916 0,0 17.91767,-8.976553 8.06709,-31.028184"
       style="display:inline;fill:#8c6239;fill-opacity:1;fill-rule:nonzero;stroke:none;stroke-width:0.131236"
       id="path162" />
    <g
       transform="matrix(0.13123619,0,0,-0.13123619,-467.97815,640.76269)"
       style="display:inline"
       id="g164">
      <g
         id="g166"
         clip-path="url(#clipPath170)">
        <path
           d="m 4084.92,3242.13 v 0 l 9.04,62.11 c 0.16,-0.21 0.33,-0.43 0.5,-0.64 4.9,-6.18 -0.14,-28.79 -9.54,-61.47"
           style="fill:url(#radialGradient176);fill-opacity:1;fill-rule:nonzero;stroke:none"
           id="path178" />
      </g>
    </g>
    <path
       d="m 114.7065,226.30578 c -8.38598,0 -18.254938,-1.63654 -22.087025,-3.18513 -5.787525,-2.32681 -18.697227,-7.18124 -24.508365,-7.84268 1.233619,-4.28876 1.895051,-7.25601 1.251993,-8.06706 -0.02232,-0.0261 -0.0446,-0.0565 -0.06562,-0.0841 l 0.03274,-0.22692 c 8.321685,3.28616 16.779858,5.94631 19.875713,6.87809 4.549973,1.3688 20.192004,4.99748 31.084604,4.99748 4.66282,0 8.45292,-0.66407 10.13274,-2.45544 4.6497,3.19297 1.27299,5.7547 -5.03946,8.47784 -2.50662,1.0814 -6.39907,1.50789 -10.67738,1.50789"
       style="display:inline;fill:#7c5d3d;fill-opacity:1;fill-rule:nonzero;stroke:none;stroke-width:0.131236"
       id="path180" />
    <path
       d="m 132.23441,211.78183 -4.92793,-2.87799 c -0.0223,-0.0148 -0.0419,-0.0298 -0.0643,-0.0446 l 8.3348,-9.55005 2.44495,7.52375 -5.78753,4.94893"
       style="display:inline;fill:#7c5d3d;fill-opacity:1;fill-rule:nonzero;stroke:none;stroke-width:0.131236"
       id="path182" />
    <g
       transform="matrix(0.13123619,0,0,-0.13123619,-467.97815,640.76269)"
       style="display:inline"
       id="g184">
      <g
         id="g186"
         clip-path="url(#clipPath190)">
        <path
           d="m 4704.71,3521.87 c 39.73,19.87 85.77,71.49 52.42,205.54 0,0 37.44,-57.33 7.56,-144.72 -12.95,-37.98 -35.99,-54.78 -59.98,-60.82"
           style="fill:url(#radialGradient196);fill-opacity:1;fill-rule:nonzero;stroke:none"
           id="path198" />
      </g>
    </g>
    <path
       d="m 146.28324,178.94 c -4.2993,0 -8.06053,-1.83601 -8.06053,-1.83601 11.18527,-0.75592 19.07518,-14.62234 18.10666,-25.51231 v 0 c 4.37672,17.59223 -1.6654,24.36664 -6.8794,26.97431 -1.05646,0.26635 -2.12734,0.37401 -3.16673,0.37401"
       style="display:inline;fill:#7c5d3d;fill-opacity:1;fill-rule:nonzero;stroke:none;stroke-width:0.131236"
       id="path200" />
    <path
       d="m 50.617327,178.18803 c -0.228339,0 -0.456702,-0.0187 -0.683739,-0.0565 -9.567118,-1.60633 -12.567176,-12.18922 -12.567176,-12.18922 0.555129,2.01711 9.928016,6.44239 16.909782,6.44239 2.454115,0 4.612949,-0.54725 5.989616,-1.93838 -1.879299,2.71528 -5.866254,7.74164 -9.648483,7.74164 m 9.648483,-7.74164 c 0.694242,-1.00394 1.101072,-1.69293 1.101072,-1.69293 -0.267733,0.66668 -0.640432,1.22706 -1.101072,1.69293"
       style="display:inline;fill:#7c5d3d;fill-opacity:1;fill-rule:nonzero;stroke:none;stroke-width:0.131236"
       id="path202" />
    <g
       transform="matrix(0.13123619,0,0,-0.13123619,-467.97815,640.76269)"
       style="display:inline"
       id="g204">
      <g
         id="g206"
         clip-path="url(#clipPath210)">
        <path
           d="m 4517.19,3859.53 c 0,0 72.75,126.5 91.88,239.3 -9.87,-76.58 -35.02,-163.79 -91.88,-239.3 v 0"
           style="fill:url(#radialGradient216);fill-opacity:1;fill-rule:nonzero;stroke:none"
           id="path218" />
      </g>
    </g>
    <path
       d="m 124.84058,134.25276 c 0,0 -0.20608,-0.0603 -0.57089,-0.16927 -3.75599,-2.24019 -8.20095,-4.16147 -13.44646,-5.48567 0.0788,-0.0484 0.19423,-0.0893 0.35171,-0.1209 22.67759,-4.61817 24.59103,-45.118957 25.31151,-51.63877 0,0 2.27563,11.56451 0.41209,26.00969 -2.51056,14.80343 -12.05799,31.40481 -12.05799,31.40481 v 0 0"
       style="display:inline;fill:#7c5d3d;fill-opacity:1;fill-rule:nonzero;stroke:none;stroke-width:0.131236"
       id="path220" />
    <g
       transform="matrix(0.13123619,0,0,-0.13123619,-467.97815,640.76269)"
       style="display:inline"
       id="g222">
      <g
         id="g224"
         clip-path="url(#clipPath228)">
        <path
           d="m 4567.21,2794.35 c -5.24,0 -10.68,1.6 -16.01,4.13 4.04,-1.52 8.18,-2.54 12.43,-3.02 0,0 21.86,7.45 45.47,34.62 -8.03,-11.93 -17.25,-22.41 -27.83,-30.84 -4.32,-3.45 -9.1,-4.89 -14.06,-4.89"
           style="fill:url(#radialGradient234);fill-opacity:1;fill-rule:nonzero;stroke:none"
           id="path236" />
      </g>
    </g>
    <path
       d="m 130.93516,273.89726 c -0.55774,-0.0629 -1.10106,-0.1968 -1.63126,-0.39634 -2.63522,-1.24805 -5.06571,-4.22189 -5.06571,-4.22189 0.27168,0.0298 0.53938,0.0461 0.8058,0.0461 11.68788,0 17.80874,-28.90476 18.84812,-35.81038 0,0 1.19558,23.69073 -6.98963,35.83928 -3.09848,3.56567 -5.96732,4.54338 -5.96732,4.54338"
       style="display:inline;fill:#7c5d3d;fill-opacity:1;fill-rule:nonzero;stroke:none;stroke-width:0.131236"
       id="path238" />
    <g
       transform="matrix(0.13123619,0,0,-0.13123619,-467.97815,640.76269)"
       style="display:inline"
       id="g240">
      <g
         id="g242"
         clip-path="url(#clipPath246)">
        <path
           d="m 4173.59,2850.5 c 6.42,10.89 12.74,23.6 18.73,38.4 -4.98,-13.61 -10.55,-26.56 -16.79,-38.34 -0.63,-0.02 -1.31,-0.04 -1.94,-0.06"
           style="fill:url(#radialGradient252);fill-opacity:1;fill-rule:nonzero;stroke:none"
           id="path254" />
      </g>
    </g>
    <g
       transform="matrix(0.13123619,0,0,-0.13123619,-467.97815,640.76269)"
       style="display:inline"
       id="g256">
      <g
         id="g258"
         clip-path="url(#clipPath262)">
        <path
           d="m 4121.56,2794.67 c 14.93,8.71 33.9,25.08 52.03,55.83 0.63,0.02 1.31,0.04 1.94,0.06 -14.27,-26.96 -32.01,-47.72 -53.97,-55.89"
           style="fill:url(#radialGradient268);fill-opacity:1;fill-rule:nonzero;stroke:none"
           id="path270" />
      </g>
    </g>
    <path
       d="m 70.171518,274.52588 c -6.679922,0 -9.631423,-9.8414 -9.631423,-9.8414 1.236242,0.8071 3.548626,1.85044 6.36889,1.85044 6.421386,0 15.476685,-5.40431 20.466283,-31.30771 v 0 c 0,0 -0.979025,14.95434 -5.169394,26.40732 -0.786105,1.94232 -1.615515,3.61035 -2.458056,5.03948 -2.379311,4.0355 -4.868858,6.18385 -6.828214,7.32692 -0.01301,0.003 -0.02381,0.008 -0.03683,0.0149 -0.964587,0.35304 -1.867491,0.51051 -2.711339,0.51051"
       style="display:inline;fill:#7c5d3d;fill-opacity:1;fill-rule:nonzero;stroke:none;stroke-width:0.131236"
       id="path272" />
    <g
       transform="matrix(0.13123619,0,0,-0.13123619,-467.97815,640.76269)"
       style="display:inline"
       id="g274">
      <g
         id="g276"
         clip-path="url(#clipPath280)">
        <path
           d="m 4677.63,4310.49 c 15.29,23.73 26.92,55.54 24.49,96.36 2.82,4.93 4.43,7.98 4.43,7.98 9.58,-39.89 -7.4,-76.34 -28.92,-104.34"
           style="fill:url(#radialGradient286);fill-opacity:1;fill-rule:nonzero;stroke:none"
           id="path288" />
      </g>
    </g>
    <path
       d="m 138.12822,82.377761 v 0 l -1.03938,-12.0711 c 0.75461,1.312332 1.65225,1.849101 2.61685,1.847797 3.49088,0 7.85185,-7.021127 9.40438,-9.729866 0.31887,5.357064 -1.20737,9.531696 -3.21398,12.645927 -3.44101,4.475149 -7.76787,7.307242 -7.76787,7.307242 v 0"
       style="display:inline;fill:#69492b;fill-opacity:1;fill-rule:nonzero;stroke:none;stroke-width:0.131236"
       id="path290" />
    <g
       transform="matrix(0.13123619,0,0,-0.13123619,-467.97815,640.76269)"
       style="display:inline"
       id="g292">
      <g
         id="g294"
         clip-path="url(#clipPath298)">
        <path
           d="m 3931.72,4241.3 c -0.32,0.16 -0.63,0.32 -0.94,0.49 0.31,-0.17 0.62,-0.33 0.94,-0.49 m -0.95,0.49 c -1.27,0.67 -2.52,1.35 -3.76,2.06 1.26,-0.71 2.52,-1.4 3.76,-2.06 m 17.26,2.66 c 0.29,11.16 1.64,30.27 6.87,50.61 l 3.75,-4.7 c 0,0 -3.17,-31.69 -10.62,-45.91 m -102.65,96.91 c -0.09,0.2 -0.13,0.3 -0.13,0.3 0.02,-0.03 0.04,-0.05 0.06,-0.08 0.02,-0.07 0.05,-0.15 0.07,-0.22"
           style="fill:url(#radialGradient304);fill-opacity:1;fill-rule:nonzero;stroke:none"
           id="path306" />
      </g>
    </g>
    <path
       d="m 49.152731,84.624514 c -0.09054,0 -0.185036,-0.01859 -0.282168,-0.06179 -0.292658,-0.12872 -0.581377,-0.266362 -0.864848,-0.412075 -0.04199,-0.02233 -0.0827,-0.04206 -0.123351,-0.06439 -0.0012,0 -0.0012,0 -0.0012,0 -0.162717,-0.08673 -0.328075,-0.177094 -0.493447,-0.270465 -6.715355,-3.828143 -10.435901,-12.159038 -10.71281,-12.796847 -0.0026,-0.0074 -0.0067,-0.0186 -0.0093,-0.02976 1.472468,1.839947 6.430572,5.39776 9.824338,5.39776 1.187687,0 2.182459,-0.435703 2.770396,-1.534169 l 1.787439,2.241533 c -0.686366,2.669344 -0.863535,5.177233 -0.901595,6.64184 -0.28347,0.539411 -0.612871,0.887171 -0.993459,0.887171"
       style="display:inline;fill:#69492b;fill-opacity:1;fill-rule:nonzero;stroke:none;stroke-width:0.131236"
       id="path308" />
    <path
       d="m 58.477061,145.39734 c -5.116896,0.8137 -18.844201,7.46081 -20.896737,12.80734 0,0 3.383271,-9.84794 21.097529,-19.95577 l -0.200773,7.14843"
       style="display:inline;fill:#c69c6d;fill-opacity:1;fill-rule:nonzero;stroke:none;stroke-width:0.131236"
       id="path310" />
    <path
       d="m 134.66885,142.34218 c 0,0 12.98054,0.33333 21.35999,7.56051 0,0 -10.80336,-15.57118 -25.88109,-15.02786 l 4.5211,7.46735"
       style="display:inline;fill:#c69c6d;fill-opacity:1;fill-rule:nonzero;stroke:none;stroke-width:0.131236"
       id="path312" />
    <path
       d="m 59.690998,260.4941 c 0.548567,1.35567 2.427865,-5.05522 5.468611,-16.13548 8.294124,-30.24205 1.548585,-21.82984 3.556497,-33.23951 0.467202,-2.64308 -12.954321,39.68188 -9.025108,49.37499"
       style="display:inline;fill:#c69c6d;fill-opacity:1;fill-rule:nonzero;stroke:none;stroke-width:0.131236"
       id="path314" />
    <path
       d="m 36.099981,68.063824 c 1.200812,-5.027651 11.589468,-13.113135 22.353459,-10.538281 0,0 -6.082798,-7.044753 -12.653792,-3.687717 -9.161598,4.686446 -9.699667,14.225998 -9.699667,14.225998"
       style="display:inline;fill:#c69c6d;fill-opacity:1;fill-rule:nonzero;stroke:none;stroke-width:0.131236"
       id="path316" />
    <path
       d="m 128.04798,50.11596 c 3.64311,-1.716555 13.41889,-4.647086 19.01612,2.367497 5.59722,7.01983 2.06828,11.471352 2.06828,11.471352 0,0 -2.65359,-8.416161 -8.15501,-11.254806 -5.50011,-2.834701 -12.92939,-2.584043 -12.92939,-2.584043"
       style="display:inline;fill:#c69c6d;fill-opacity:1;fill-rule:nonzero;stroke:none;stroke-width:0.131236"
       id="path318" />
    <path
       d="m 122.0846,57.286714 c -4.42265,-2.510571 -50.935375,-8.249502 -67.275591,14.698452 0,0 11.858501,-22.293108 36.685763,-23.752458 24.825938,-1.455408 30.589828,9.054006 30.589828,9.054006"
       style="display:inline;fill:#c69c6d;fill-opacity:1;fill-rule:nonzero;stroke:none;stroke-width:0.131236"
       id="path320" />
    <path
       d="m 79.485349,127.91013 c -5.303254,0.83859 -19.323214,2.76385 -20.728754,15.14204 -1.393728,12.3782 -3.047304,13.68922 -3.047304,13.68922 0,0 8.114333,7.72457 4.960728,15.23652 0,0 -6.224532,5.88201 -6.059175,7.53558 0.165359,1.64179 4.87805,11.31519 4.87805,11.31519 0,0 51.449826,5.09067 67.867456,17.04366 0,0 16.96097,-16.37041 16.02789,-27.67379 0,0 -17.12632,-5.00798 0.25984,-21.90987 0,0 -9.69705,-38.94169 -64.158731,-30.37855"
       style="display:inline;fill:#c7b299;fill-opacity:1;fill-rule:nonzero;stroke:none;stroke-width:0.131236"
       id="path322" />
    <path
       d="m 88.981602,195.19884 c -9.543497,-1.47639 -38.705488,-8.27967 -39.496841,-1.22837 -0.803166,7.03951 32.811667,17.72871 39.721244,19.8075 6.909587,2.07878 39.390545,9.3663 41.989015,1.25198 2.59847,-8.11434 -32.681735,-18.35468 -42.213418,-19.83111"
       style="display:inline;fill:#998675;fill-opacity:1;fill-rule:nonzero;stroke:none;stroke-width:0.131236"
       id="path324" />
    <path
       d="m 88.822795,86.389651 c -3.711353,-0.421257 -11.897866,10.531697 1.486916,37.937749 0,0 15.349379,0.1261 18.085649,3.55122 2.72972,3.42527 13.25748,-37.788132 -19.572565,-41.488969"
       style="display:inline;fill:#d9b790;fill-opacity:1;fill-rule:nonzero;stroke:none;stroke-width:0.131236"
       id="path326" />
    <path
       d="m 111.88756,218.19143 c -0.18109,0 -0.36353,-0.0113 -0.54726,-0.0298 -0.69161,-0.0789 -0.83203,-0.10237 -0.55906,-0.10237 0.22048,0 0.7113,0.0148 1.39766,0.0298 0.19162,0.003 0.39896,0.008 0.61943,0.0148 -0.29396,0.0592 -0.59975,0.0893 -0.91077,0.0893"
       style="display:inline;fill:#5c5046;fill-opacity:1;fill-rule:nonzero;stroke:none;stroke-width:0.131236"
       id="path328" />
    <path
       d="m 127.19362,208.82513 c -7.90959,-5.52378 -25.20915,-10.81522 -34.449484,-12.88741 6.441078,1.32156 13.012064,2.91476 18.904564,4.79537 6.32035,2.21262 11.92544,4.89116 15.54492,8.09204 M 89.207321,195.23429 c -0.07617,-0.0113 -0.15223,-0.0223 -0.225732,-0.0372 -2.047288,-0.31621 -4.996163,-0.87797 -8.374182,-1.4961 2.752022,0.4541 5.643153,0.96327 8.599902,1.53151"
       style="display:inline;fill:#644a31;fill-opacity:1;fill-rule:nonzero;stroke:none;stroke-width:0.131236"
       id="path330" />
    <g
       transform="matrix(0.13123619,0,0,-0.13123619,-467.97815,640.76269)"
       style="display:inline"
       id="g332">
      <g
         id="g334"
         clip-path="url(#clipPath338)">
        <path
           d="m 3943.49,3407.14 c -0.58,12.26 15.34,17.91 37.21,19.95 -20.38,-2.48 -34.2,-8.56 -37.21,-19.95"
           style="fill:url(#radialGradient344);fill-opacity:1;fill-rule:nonzero;stroke:none"
           id="path346" />
      </g>
    </g>
    <path
       d="m 111.6487,200.73309 c -5.8925,-1.88061 -12.463486,-3.47381 -18.904564,-4.79537 -1.377982,-0.30988 -2.574856,-0.54727 -3.536815,-0.70343 -2.95675,-0.56823 -5.84788,-1.07744 -8.599904,-1.53152 -1.0722,-0.19566 -2.18902,-0.39763 -3.332086,-0.59845 -0.467201,-0.11269 -0.943586,-0.25593 -1.426539,-0.42651 5.826889,0.8255 15.110537,2.33993 24.436188,4.6917 -0.0419,-0.008 -0.0866,-0.015 -0.12995,-0.0223 0,0 0.1706,0.038 0.48819,0.11166 3.74154,0.95279 7.48571,2.04073 11.00546,3.27304"
       style="display:inline;fill:#776b5c;fill-opacity:1;fill-rule:nonzero;stroke:none;stroke-width:0.131236"
       id="path348" />
    <path
       d="m 114.80887,218.1232 c -0.74672,0 -1.42785,-0.008 -2.01054,-0.0223 5.06573,-1.00134 6.76655,-10.29419 -21.147381,-16.27725 -11.497607,-2.4633 -18.959698,-3.30583 -23.791815,-3.30583 -10.477894,0 -8.571032,3.96725 -8.571032,3.96725 -7.0067,-4.32553 -9.656358,-7.11038 -9.737723,-8.86369 0.39502,-1.49475 2.208704,-2.29269 4.883296,-2.61815 0.939653,-0.0867 1.961982,-0.12466 3.019746,-0.12466 0.149623,0 0.299207,9.6e-4 0.450138,0.002 0.0012,0.002 0.0026,0.003 0.0026,0.003 l 20.764184,2.46858 v 0 c -0.452763,-0.0514 -0.919965,-0.13653 -1.395038,-0.25186 1.143065,0.20089 2.259886,0.40288 3.332083,0.59844 3.378019,0.6181 6.326897,1.17979 8.374184,1.49608 0.07354,0.0113 0.149624,0.0223 0.225732,0.0372 0.961958,0.15625 2.158832,0.39373 3.536813,0.70345 9.240333,2.07222 26.539883,7.36366 34.449493,12.88738 0.0145,0.015 0.03,0.0261 0.0446,0.0395 9.40439,8.35449 -4.89773,9.25873 -12.42938,9.25873"
       style="display:inline;fill:#5c5046;fill-opacity:1;fill-rule:nonzero;stroke:none;stroke-width:0.131236"
       id="path350" />
    <path
       d="m 127.86424,207.44712 c -0.0145,-0.0113 -0.0316,-0.0223 -0.046,-0.0298 0.27558,-0.27826 0.66669,-0.67717 1.1457,-1.17983 -0.689,0.77824 -1.09976,1.21134 -1.09976,1.21134 m 15.51998,-27.24858 c 0,0 -2.9738,-0.8701 -5.18513,-3.10768 l 5.18513,3.10768"
       style="display:inline;fill:#644a31;fill-opacity:1;fill-rule:nonzero;stroke:none;stroke-width:0.131236"
       id="path352" />
    <path
       d="m 127.81831,207.41562 c -7.49357,-5.21923 -24.11858,-9.24559 -27.17508,-9.95556 -0.31757,-0.0737 -0.48819,-0.11167 -0.48819,-0.11167 0.0433,0.008 0.088,0.0148 0.12995,0.0223 3.74942,0.61419 7.113,0.8898 10.13929,0.8898 26.88898,0 26.71181,-21.80491 26.71181,-21.80491 l 1.06302,0.6365 c 2.21134,2.23755 5.18514,3.10768 5.18514,3.10768 v 0 c -1.1562,10.2758 -11.07108,22.25107 -14.42023,26.03726 -0.47901,0.50261 -0.8701,0.90159 -1.1457,1.17978"
       style="display:inline;fill:#776b5c;fill-opacity:1;fill-rule:nonzero;stroke:none;stroke-width:0.131236"
       id="path354" />
    <g
       transform="matrix(0.13123619,0,0,-0.13123619,-467.97815,640.76269)"
       style="display:inline"
       id="g356">
      <g
         id="g358"
         clip-path="url(#clipPath362)">
        <path
           d="m 4018.55,3428.23 c -3.97,0.13 -7.83,0.21 -11.59,0.21 -2.22,5.23 -22.59,53.71 -26.54,80.31 7.88,-17.89 21.41,-47.66 38.13,-80.52"
           style="fill:url(#radialGradient368);fill-opacity:1;fill-rule:nonzero;stroke:none"
           id="path370" />
      </g>
    </g>
    <path
       d="m 59.966593,190.87726 c -0.188981,-0.008 -0.379273,-0.0149 -0.565627,-0.0223 -2.194272,-4.31242 -3.969896,-8.21933 -5.004037,-10.56714 -0.157471,-1.05777 -0.116812,-1.85174 0.249357,-2.1444 0.347791,-0.27826 0.771667,-0.63123 1.224435,-1.01707 -0.772984,0.99608 -1.30974,1.88586 -1.259869,2.38717 0.165357,1.64179 4.878048,11.31519 4.878048,11.31519 0,0 0.165359,0.0148 0.477699,0.0484"
       style="display:inline;fill:#644a31;fill-opacity:1;fill-rule:nonzero;stroke:none;stroke-width:0.131236"
       id="path372" />
    <path
       d="m 77.275331,193.10432 c -5.695651,-1.00264 -12.089477,-1.99348 -17.308738,-2.22706 -0.312339,-0.0335 -0.477699,-0.0484 -0.477699,-0.0484 0,0 -4.712691,-9.67344 -4.87805,-11.31519 -0.04988,-0.50133 0.486885,-1.39109 1.25987,-2.38717 1.679821,-1.43179 3.748103,-3.29406 3.748103,-3.29406 -0.74411,6.62352 8.555284,16.14864 16.229975,18.84552 0.482953,0.17074 0.959338,0.3136 1.426539,0.42654"
       style="display:inline;fill:#776b5c;fill-opacity:1;fill-rule:nonzero;stroke:none;stroke-width:0.131236"
       id="path374" />
    <path
       d="m 78.670372,193.35629 -20.764187,-2.46855 c 0,0 -0.0012,-0.002 -0.0026,-0.003 -0.0026,-0.008 -0.01043,-0.0261 -0.02381,-0.055 0.493449,0 1.000021,0.0113 1.52103,0.0261 0.186338,0.008 0.376647,0.0148 0.565626,0.0223 5.219262,0.23362 11.61309,1.22442 17.308738,2.22706 0.475077,0.11538 0.942279,0.20089 1.395042,0.25185"
       style="display:inline;fill:#5c5046;fill-opacity:1;fill-rule:nonzero;stroke:none;stroke-width:0.131236"
       id="path376" />
    <path
       d="m 73.692584,96.022388 c 0.13519,2.51448 -2.392435,4.699552 -5.652341,4.879342 -3.250723,0.17856 -6.000119,-1.720502 -6.140541,-4.238922 -0.133847,-2.51974 2.391124,-4.70744 5.648404,-4.88198 3.25597,-0.17856 6.007994,1.71656 6.144478,4.24156"
       style="display:inline;fill:#c69c6d;fill-opacity:1;fill-rule:nonzero;stroke:none;stroke-width:0.131236"
       id="path378" />
    <path
       d="m 123.49409,88.749264 c 0.13647,2.514464 -2.39112,4.699574 -5.64841,4.876714 -3.2481,0.17968 -6.00537,-1.71524 -6.14054,-4.23757 -0.13649,-2.518456 2.39637,-4.70747 5.64972,-4.882014 3.25858,-0.177071 6.00536,1.717897 6.13923,4.24287"
       style="display:inline;fill:#c69c6d;fill-opacity:1;fill-rule:nonzero;stroke:none;stroke-width:0.131236"
       id="path380" />
    <path
       d="m 138.6991,147.60082 c 5.98961,3.23233 -22.46237,-32.45733 -69.262507,-17.22606 0,0 -9.81384,3.95675 -11.40836,18.11712 -0.297904,2.65361 26.239362,-30.22628 80.670867,-0.89106"
       style="display:inline;fill:#ded6ce;fill-opacity:1;fill-rule:nonzero;stroke:none;stroke-width:0.131236"
       id="path382" />
    <path
       d="m 18.696753,149.77145 c -2.032849,10.22985 -1.731006,20.69856 1.843868,30.55574 1.164066,3.2166 6.333457,1.82812 5.152331,-1.42 -3.246782,-8.96471 -3.692984,-18.39405 -1.842556,-27.71444 0.670619,-3.36754 -4.481715,-4.79801 -5.153643,-1.4213"
       style="display:inline;fill:#362e2a;fill-opacity:1;fill-rule:nonzero;stroke:none;stroke-width:0.131236"
       id="path384" />
    <path
       d="m 6.5390342,155.32404 c -1.2178722,6.00934 -1.3530447,12.14855 -1.1929366,18.26284 0.087952,3.44235 5.4344914,3.45153 5.3465624,0 -0.14698,-5.62346 -0.118115,-11.30993 1.000018,-16.84285 0.681117,-3.36883 -4.4725255,-4.79931 -5.1536438,-1.41999"
       style="display:inline;fill:#362e2a;fill-opacity:1;fill-rule:nonzero;stroke:none;stroke-width:0.131236"
       id="path386" />
    <path
       d="m 163.09984,131.15691 c 8.13928,1.34254 8.37155,12.25485 7.74164,18.69459 -0.33072,3.42921 5.01582,3.39771 5.34917,0 0.86354,-8.86763 -0.94095,-22.0818 -11.67084,-23.85215 -3.36882,-0.55384 -4.81767,4.5998 -1.41997,5.15756"
       style="display:inline;fill:#362e2a;fill-opacity:1;fill-rule:nonzero;stroke:none;stroke-width:0.131236"
       id="path388" />
    <path
       d="m 174.47145,125.71719 c 6.24815,0.95013 7.53428,7.86364 7.01854,13.2312 -0.33221,3.43051 5.02106,3.39904 5.34653,0 0.7336,-7.62348 -2.37669,-17.08561 -10.94378,-18.38747 -3.37016,-0.51443 -4.81898,4.63918 -1.42129,5.15627"
       style="display:inline;fill:#362e2a;fill-opacity:1;fill-rule:nonzero;stroke:none;stroke-width:0.131236"
       id="path390" />
    <path
       d="m 171.51601,12.721526 c -1.38455,13.227304 -1.85831,26.778739 1.06958,39.832799 0.69555,3.111625 5.01978,2.145706 5.24945,-0.711278 0.28459,-3.528944 -1.63126,-40.2541 0.12722,-40.057233 -0.25444,-0.02605 0.5302,7.76392 0.53674,8.48967 0.038,4.388542 -0.98162,8.798065 -1.89635,13.065889 -1.3688,6.380683 -3.27958,12.639347 -4.16938,19.118462 -0.46587,3.37017 4.68648,4.824237 5.15364,1.419992 1.08798,-7.897805 14.67222,-45.8408039 -0.29016,-47.5153599 -0.89372,-0.09858 -1.89374,0.57479 -2.30846,1.324162 -7.41483,13.3283419 -1.34384,29.7919299 -2.50134,44.1544179 1.74806,-0.236226 3.50007,-0.473791 5.25074,-0.710017 -2.81368,-12.559288 -2.20609,-25.694705 -0.87404,-38.411504 0.35712,-3.4265659 -4.99089,-3.3937549 -5.34787,0"
       style="display:inline;fill:#362e2a;fill-opacity:1;fill-rule:nonzero;stroke:none;stroke-width:0.131236"
       id="path392" />
    <path
       d="m 175.19587,75.134839 c -1.40421,1.023623 -1.73754,1.377956 -0.99608,1.06167 0.52757,-0.200875 1.00396,-0.446176 1.4108,-0.853002 0.73624,-0.737544 1.03543,-1.72709 1.20868,-2.717928 0.32662,-1.839921 -0.74674,-3.179856 -2.57749,-3.384573 -0.38057,-0.04055 -0.83988,-0.137643 -1.23491,-0.08928 -1.82159,0.228413 -2.90558,1.52367 -2.57616,3.38461 0.43176,2.464583 0.73884,-1.632601 0.44358,-1.329451 -2.4069,2.469874 1.37141,6.253419 3.7809,3.780905 0.61289,-0.629914 1.3688,-1.586613 1.26118,-2.551228 -0.0395,-0.309507 -0.54856,-2.557784 -0.32923,-1.322866 -0.8596,1.129983 -1.7192,2.258579 -2.58009,3.385911 0.39499,-0.04986 0.85435,0.04723 1.23491,0.08932 -0.85826,-1.127344 -1.71655,-2.255941 -2.57746,-3.383275 -0.3043,1.725753 1.99872,-0.822845 -0.16664,0.36494 -0.79269,0.437001 -1.25335,1.301881 -1.45545,2.143108 -0.81233,3.350447 4.34393,4.770412 5.15364,1.421253"
       style="display:inline;fill:#362e2a;fill-opacity:1;fill-rule:nonzero;stroke:none;stroke-width:0.131236"
       id="path394" />
    <path
       d="m 196.6517,30.311108 c -4.12216,8.513293 -3.74025,18.554162 -4.68779,27.761696 -0.35156,3.427906 4.99617,3.393793 5.34527,0 0.86221,-8.364973 0.63386,-17.189302 3.95939,-25.062145 -0.77034,0.440941 -1.5381,0.881882 -2.30711,1.32286 0.88452,0.09859 1.76641,0.199397 2.65226,0.297979 -0.8911,-0.891108 -1.78482,-1.783518 -2.67328,-2.673288 -0.15625,9.542156 -4.51845,17.726073 -7.03163,26.734098 -0.92916,3.325531 4.22843,4.736334 5.15366,1.419993 2.6549,-9.510684 7.05919,-18.080409 7.22454,-28.154091 0.0261,-1.580104 -1.24546,-2.514476 -2.67329,-2.673286 -0.88585,-0.0997 -1.76774,-0.198281 -2.65226,-0.297979 -0.82024,-0.0904 -1.98429,0.556451 -2.30976,1.324163 -3.74025,8.85714 -3.71663,18.335012 -4.68779,27.761696 1.78351,0 3.56308,0 5.34527,0 0.84382,-8.183879 0.29797,-17.50164 3.95939,-25.062145 1.4974,-3.089303 -3.11557,-5.801986 -4.61687,-2.699551"
       style="display:inline;fill:#362e2a;fill-opacity:1;fill-rule:nonzero;stroke:none;stroke-width:0.131236"
       id="path396" />
    <path
       d="m 187.66201,72.388045 c -0.0298,0.245526 -0.41733,3.299309 -0.18377,1.75201 1.74936,0.237708 3.50137,0.475091 5.25073,0.709982 0.0223,-0.1942 0.0618,-0.397643 0.0659,-0.59317 0.0223,-3.542076 -4.94105,-3.320286 -5.34787,0 -0.0335,0.261149 -0.0629,0.524941 -0.0919,0.78609 -0.40158,3.420017 4.95023,3.383259 5.34393,0 0.0334,-0.261149 0.0618,-0.524941 0.0956,-0.78609 -1.78348,0 -3.56701,0 -5.34788,0 -9.6e-4,0.195677 -0.0445,0.398946 -0.0659,0.59317 -0.3255,2.98826 4.80456,3.679862 5.25074,0.712612 0.15886,-1.055119 0.25595,-2.118143 0.37535,-3.174604 0.38716,-3.423962 -4.96072,-3.387206 -5.34526,0"
       style="display:inline;fill:#362e2a;fill-opacity:1;fill-rule:nonzero;stroke:none;stroke-width:0.131236"
       id="path398" />
    <path
       d="m 53.679069,219.66127 c -3.144421,4.66806 -4.815056,10.11962 -7.950289,14.79689 -1.926547,2.87274 2.707401,5.54603 4.615576,2.69425 3.135231,-4.67197 4.805871,-10.12222 7.950288,-14.79553 1.930484,-2.86751 -2.702152,-5.5408 -4.615575,-2.69561"
       style="display:inline;fill:#362e2a;fill-opacity:1;fill-rule:nonzero;stroke:none;stroke-width:0.131236"
       id="path400" />
    <path
       d="m 39.83365,242.58298 c -1.047265,0.58533 -1.527587,1.26383 -1.773001,2.43314 -0.707362,3.36357 4.446282,4.79536 5.153647,1.42128 0.04199,-0.19939 0.0866,-0.39633 0.128603,-0.60238 -0.410771,0.53411 -0.820225,1.06695 -1.229683,1.59977 0.140434,-0.0789 0.279527,-0.15735 0.419956,-0.23621 3.005309,-1.68639 0.309734,-6.30591 -2.699529,-4.6156"
       style="display:inline;fill:#362e2a;fill-opacity:1;fill-rule:nonzero;stroke:none;stroke-width:0.131236"
       id="path402" />
    <path
       d="m 29.887261,228.47641 c 5.922688,-2.80059 10.68525,-7.53164 15.92682,-11.36373 2.75465,-2.01055 0.09184,-6.65106 -2.699524,-4.61558 -5.244201,3.8334 -10.005446,8.56449 -15.926824,11.36113 -3.115546,1.47244 -0.40027,6.08408 2.699528,4.61818"
       style="display:inline;fill:#362e2a;fill-opacity:1;fill-rule:nonzero;stroke:none;stroke-width:0.131236"
       id="path404" />
    <path
       d="m 17.545812,232.77177 c 0.01301,0.14694 0.0264,0.29796 0.03936,0.44491 0.299208,3.40426 5.648408,3.43442 5.346564,0 -0.01302,-0.14695 -0.02642,-0.29797 -0.03936,-0.44491 -0.300544,-3.40425 -5.649715,-3.43446 -5.346562,0"
       style="display:inline;fill:#362e2a;fill-opacity:1;fill-rule:nonzero;stroke:none;stroke-width:0.131236"
       id="path406" />
    <path
       d="m 6.0665846,252.33645 c 0.2139041,0.10374 0.4291414,0.21391 0.6417429,0.32401 2.7677735,2.06305 5.4279295,-2.57745 2.6995297,-4.61557 -0.6601178,-0.49083 -1.1168204,-0.70474 -1.9212959,-0.86614 -3.3648977,-0.66932 -4.801932,4.48432 -1.4199767,5.15756"
       style="display:inline;fill:#362e2a;fill-opacity:1;fill-rule:nonzero;stroke:none;stroke-width:0.131236"
       id="path408" />
    <path
       d="m 24.905538,258.26834 c 0.2113,0.10487 0.426517,0.21539 0.636494,0.32402 2.770396,2.06301 5.430551,-2.58538 2.699528,-4.61692 -0.654868,-0.48948 -1.116819,-0.70338 -1.916049,-0.86483 -3.364894,-0.68373 -4.797992,4.46989 -1.419973,5.15759"
       style="display:inline;fill:#362e2a;fill-opacity:1;fill-rule:nonzero;stroke:none;stroke-width:0.131236"
       id="path410" />
    <path
       d="m 23.75197,242.55807 c 0.0067,0.90944 0.18898,1.53412 0.707362,2.2822 1.946235,2.81237 6.584118,0.14583 4.615579,-2.69428 0.0067,0.13392 0.01562,0.27566 0.02344,0.41208 -0.02901,-3.44628 -5.376749,-3.45283 -5.346563,0"
       style="display:inline;fill:#362e2a;fill-opacity:1;fill-rule:nonzero;stroke:none;stroke-width:0.131236"
       id="path412" />
    <path
       d="M 71.204346,127.69099 C 58.689664,112.78388 46.98865,91.396308 56.836611,72.301439 65.747545,55.020255 88.380535,48.522762 106.2011,51.819423 c 37.359,6.91615 34.85631,55.079807 16.35465,79.349307 -2.09191,2.74022 2.55517,5.39905 4.61293,2.69428 22.19073,-29.09899 19.98729,-82.609225 -23.57526,-87.908554 -20.315348,-2.469873 -40.227812,6.317701 -51.372384,23.647436 -12.858523,19.992526 2.133896,46.298828 15.202395,61.868698 2.219203,2.64308 5.981745,-1.15884 3.780915,-3.7796"
       style="display:inline;fill:#362e2a;fill-opacity:1;fill-rule:nonzero;stroke:none;stroke-width:0.131236"
       id="path414" />
    <path
       d="M 64.823641,59.307759 C 57.612216,49.802322 44.665768,47.029298 36.648548,57.362826 27.29666,69.41425 37.081628,82.264902 48.80102,87.362122 c 3.127357,1.363504 5.853135,-3.241535 2.699529,-4.615594 -8.320376,-3.620816 -16.955715,-11.262686 -11.481854,-20.903311 4.833427,-8.514595 14.943861,-6.749454 20.189372,0.165543 2.055159,2.70874 6.700918,0.04836 4.615574,-2.700815"
       style="display:inline;fill:#362e2a;fill-opacity:1;fill-rule:nonzero;stroke:none;stroke-width:0.131236"
       id="path416" />
    <path
       d="m 125.2474,57.318223 c 4.00663,-8.030352 15.60397,-10.870299 20.45578,-1.905573 4.21005,7.774447 -0.39108,19.298286 -7.49752,23.512286 -2.96202,1.757246 -0.27428,6.378071 2.69952,4.615574 10.52382,-6.238982 14.6604,-21.136901 8.823,-31.9232 -6.54343,-12.088177 -23.87448,-7.472599 -29.09373,3.002664 -1.53546,3.074869 3.07487,5.783609 4.61295,2.698249"
       style="display:inline;fill:#362e2a;fill-opacity:1;fill-rule:nonzero;stroke:none;stroke-width:0.131236"
       id="path418" />
    <path
       d="m 58.041358,136.41029 c -2.13915,6.69436 -4.112944,13.34542 -5.002724,20.33374 -0.435703,3.41347 4.918733,3.37279 5.346563,0 0.824162,-6.48046 2.829452,-12.71545 4.809804,-18.91374 1.051203,-3.29406 -4.110317,-4.69434 -5.153643,-1.42"
       style="display:inline;fill:#362e2a;fill-opacity:1;fill-rule:nonzero;stroke:none;stroke-width:0.131236"
       id="path420" />
    <path
       d="m 59.549263,141.37102 c 19.581748,-24.51751 75.229807,-13.24698 81.513397,17.62109 0.68638,3.38066 5.84002,1.94361 5.15364,-1.41998 -4.05125,-19.91379 -21.69201,-29.75519 -40.49291,-32.85757 -16.027873,-2.64443 -38.97845,-0.8662 -49.953729,12.87556 -2.127339,2.66411 1.62864,6.47387 3.779602,3.7809"
       style="display:inline;fill:#362e2a;fill-opacity:1;fill-rule:nonzero;stroke:none;stroke-width:0.131236"
       id="path422" />
    <path
       d="m 140.81201,179.48857 c -2.3885,10.68657 -6.80461,19.44921 -15.34414,26.49397 -2.66278,2.19034 1.14306,5.9555 3.7796,3.7796 9.19309,-7.58152 14.15251,-17.35206 16.71686,-28.85357 0.75331,-3.35835 -4.40296,-4.78359 -5.15232,-1.42"
       style="display:inline;fill:#362e2a;fill-opacity:1;fill-rule:nonzero;stroke:none;stroke-width:0.131236"
       id="path424" />
    <path
       d="m 51.94675,187.79584 c -15.546239,10.81777 8.710145,19.36522 17.413727,22.2314 17.722132,5.84394 43.268553,18.84945 61.339773,8.84529 14.86644,-8.22192 -16.56593,-20.11849 -20.80487,-21.38622 -18.299562,-5.4883 -37.656894,-7.92143 -56.598212,-10.05793 -3.422636,-0.38585 -3.38589,4.96727 0,5.34917 22.919086,2.58274 50.668962,4.38984 70.971212,16.20634 10.73379,6.24423 -5.50798,7.96343 -11.03697,7.63927 -9.52642,-0.55906 -19.094861,-4.01713 -28.083221,-6.98569 -4.794056,-1.5827 -9.557932,-3.22842 -14.365113,-4.7639 -2.059093,-0.65878 -23.409908,-7.39774 -16.136797,-12.46349 2.807142,-1.95278 0.139094,-6.58938 -2.699529,-4.61424"
       style="display:inline;fill:#362e2a;fill-opacity:1;fill-rule:nonzero;stroke:none;stroke-width:0.131236"
       id="path426" />
    <path
       d="m 57.967864,135.66881 c -17.659141,5.82297 -35.051867,30.81689 -13.458269,43.46411 6.969954,4.08276 15.754906,0.70474 18.812708,-6.50667 3.744167,-8.83352 -3.330775,-15.7628 -10.884729,-18.91244 -3.181164,-1.32551 -4.555209,3.85436 -1.419977,5.16018 5.834759,2.42654 10.829607,8.26918 5.868884,14.15514 -5.1169,6.06705 -12.896581,0.2087 -16.013439,-4.69433 -6.8794,-10.83485 9.431944,-24.51491 18.514799,-27.50709 3.258593,-1.07615 1.863552,-6.23896 -1.419977,-5.1589"
       style="display:inline;fill:#362e2a;fill-opacity:1;fill-rule:nonzero;stroke:none;stroke-width:0.131236"
       id="path428" />
    <path
       d="m 127.52696,137.22528 c 15.85203,0.30841 31.0846,11.84143 28.2696,29.14101 -0.98166,6.04077 -8.14059,13.89396 -14.8087,10.45164 -2.99088,-1.54466 -2.68378,-6.13925 -2.06959,-8.76526 1.17062,-4.99093 5.76257,-7.7797 10.35454,-9.01725 3.32552,-0.89767 1.91473,-6.05786 -1.41867,-5.15889 -9.65768,2.60502 -16.85728,11.32566 -14.05934,21.61199 2.92788,10.77711 15.87696,7.57098 22.08704,2.09321 7.2915,-6.42272 6.63269,-19.15655 2.87409,-27.15671 -5.85839,-12.46877 -17.84682,-18.28516 -31.22897,-18.5463 -3.45019,-0.068 -3.44494,5.27831 0,5.34656"
       style="display:inline;fill:#362e2a;fill-opacity:1;fill-rule:nonzero;stroke:none;stroke-width:0.131236"
       id="path430" />
    <path
       d="m 66.632077,206.31455 c -2.46199,12.59474 -6.267837,24.83385 -8.24163,37.55325 -1.322861,8.51198 -3.488257,22.73405 3.192974,29.88247 18.933444,20.26942 26.78924,-25.19866 27.961182,-35.47313 0.39108,-3.42135 -4.960731,-3.3846 -5.346563,0 -0.916029,8.03427 -2.202142,15.93467 -4.616891,23.66712 -1.832054,5.87937 -8.669458,16.23915 -14.768006,7.11826 -2.509235,-3.75597 -2.224452,-9.30465 -2.190331,-13.59342 0.136489,-16.31137 6.069673,-31.90093 9.162913,-47.73325 0.658802,-3.36884 -4.492218,-4.80322 -5.153648,-1.4213"
       style="display:inline;fill:#362e2a;fill-opacity:1;fill-rule:nonzero;stroke:none;stroke-width:0.131236"
       id="path432" />
    <path
       d="m 78.081119,235.1327 c 7.492276,2.10766 14.875618,5.49223 22.673671,6.32295 8.53691,0.91344 15.66305,-3.09584 24.05558,-2.95016 3.44889,0.0565 3.44234,-5.28881 0,-5.34658 -7.25604,-0.1261 -13.79685,3.48828 -21.02796,3.27434 -8.292809,-0.24032 -16.404519,-4.23892 -24.281314,-6.45944 -3.324212,-0.9344 -4.733687,4.2232 -1.419977,5.15889"
       style="display:inline;fill:#362e2a;fill-opacity:1;fill-rule:nonzero;stroke:none;stroke-width:0.131236"
       id="path434" />
    <path
       d="m 111.06339,238.61572 c 0.0485,10.59864 7.45422,44.22528 24.19733,36.74219 9.07367,-4.05518 10.42277,-21.56866 11.07632,-29.77091 1.27561,-16.00164 -2.04466,-33.00589 -8.44635,-47.62433 -1.38061,-3.15619 -5.9857,-0.4291 -4.61558,2.69297 8.01721,18.31666 10.86767,41.19635 4.85706,60.47628 -8.15502,26.15142 -21.67366,-11.91231 -21.72353,-22.5162 -0.0145,-3.4476 -5.36231,-3.4476 -5.34525,0"
       style="display:inline;fill:#362e2a;fill-opacity:1;fill-rule:nonzero;stroke:none;stroke-width:0.131236"
       id="path436" />
    <path
       d="m 84.493321,85.673089 c -9.311208,10.409639 -2.914757,29.663321 3.507944,40.002091 1.814998,2.92395 6.441075,0.24032 4.61558,-2.69689 -4.94236,-7.95422 -11.719395,-25.277412 -4.343923,-33.524302 2.292698,-2.561725 -1.477719,-6.35445 -3.779601,-3.780899"
       style="display:inline;fill:#362e2a;fill-opacity:1;fill-rule:nonzero;stroke:none;stroke-width:0.131236"
       id="path438" />
    <path
       d="m 86.283383,92.675848 c 4.618195,-9.183916 14.523907,-0.36347 18.403247,4.92137 5.35968,7.296742 5.89512,18.610582 3.11948,26.940132 -1.09451,3.27959 4.07227,4.67332 5.15496,1.42001 4.04733,-12.14332 1.36223,-26.164562 -7.32429,-35.532202 -6.65367,-7.175995 -18.68803,-10.954308 -23.968975,-0.44883 -1.545961,3.07222 3.068304,5.77962 4.615578,2.69952"
       style="display:inline;fill:#362e2a;fill-opacity:1;fill-rule:nonzero;stroke:none;stroke-width:0.131236"
       id="path440" />
    <path
       d="m 94.405586,99.652368 c 0.276927,-1.31103 1.028894,-2.45019 0.248052,-3.78355 -1.057759,-1.80449 -3.022358,-1.55644 -4.715313,-0.98426 -1.08401,0.36345 -2.039407,1.35304 -1.963291,2.57616 0.115472,1.89769 1.105013,3.695602 3.143102,4.057832 1.841243,0.33071 3.179851,-0.75198 3.384585,-2.577512 0.04852,-0.44094 0.09852,-0.88452 0.148287,-1.32676 0.383211,-3.42396 -4.960728,-3.38326 -5.346569,0 -0.03683,0.3203 -0.07354,0.63518 -0.108868,0.95276 1.782191,0 3.565695,0 5.345253,0 0.02075,-0.19308 0.04331,-0.38845 0.06825,-0.58137 -1.782188,0 -3.565691,0 -5.346561,0 -0.03683,0.31879 -0.07091,0.6365 -0.107622,0.95537 -0.383211,3.423972 4.968611,3.387232 5.347888,0 0.03537,-0.31879 0.07097,-0.63646 0.106341,-0.95537 0.375332,-3.45939 -4.900371,-3.33602 -5.346572,0 -0.02644,0.19307 -0.04723,0.38845 -0.0669,0.58137 -0.35828,3.442332 4.956796,3.371462 5.345256,0 0.03809,-0.3177 0.07358,-0.63257 0.110195,-0.95276 -1.783514,0 -3.563073,0 -5.346576,0 -0.04986,0.44224 -0.09972,0.88582 -0.149611,1.32676 1.128623,-0.85825 2.25726,-1.71785 3.383267,-2.57615 -0.549875,-0.12352 -0.290022,0.24293 0.784799,1.09583 -0.656193,0.85959 -1.308429,1.7179 -1.963296,2.577492 0.275578,-0.157362 0.568252,-0.248122 0.876651,-0.271562 -0.63124,-0.26115 -1.261177,-0.52233 -1.88981,-0.78348 l 0.108835,0.1261 c -0.261158,-0.62995 -0.522327,-1.26118 -0.783481,-1.8911 0.04986,-0.49871 -0.39109,0.87533 -0.419955,1.01314 -0.707363,3.362272 4.446274,4.794062 5.153642,1.42128"
       style="display:inline;fill:#362e2a;fill-opacity:1;fill-rule:nonzero;stroke:none;stroke-width:0.131236"
       id="path442" />
    <path
       d="m 96.693027,117.78657 c 1.219185,-0.77955 2.737586,-0.51575 4.114263,-0.36345 3.42527,0.37536 3.38851,-4.97383 0,-5.34788 -2.355689,-0.25705 -4.757316,-0.22172 -6.813779,1.09451 -2.893763,1.85176 -0.215254,6.48047 2.699516,4.6169"
       style="display:inline;fill:#362e2a;fill-opacity:1;fill-rule:nonzero;stroke:none;stroke-width:0.131236"
       id="path444" />
    <path
       d="m 50.76169,61.211994 c -5.735022,2.826815 -7.439783,12.836217 -2.216581,17.016053 1.21131,0.968524 3.420015,1.174586 4.198244,-0.540677 0.834664,-1.845193 1.598457,-3.720555 2.430496,-5.568366 0.673241,-1.498703 1.493467,-3.820257 3.028931,-4.635252 2.179832,-1.154863 1.414724,-4.165411 -0.639121,-4.883276 -1.580086,-0.553844 -3.160167,-1.107653 -4.741563,-1.657519 -1.123382,-0.395034 -2.440994,0.24813 -3.018432,1.227032 -1.65489,2.81108 -2.124713,6.118231 -3.771727,8.914875 1.660134,0.448828 3.320274,0.900302 4.980411,1.349122 0.16666,-1.393726 0.329414,-3.484336 1.363543,-4.518444 2.443621,-2.438401 -1.339921,-6.219306 -3.780911,-3.779603 -2.15621,2.150952 -2.581416,5.408217 -2.929191,8.298047 -0.330716,2.762528 3.727104,3.477759 4.981724,1.350433 1.65751,-2.811082 2.127338,-6.116932 3.773039,-8.916181 -1.006579,0.410771 -2.014476,0.820202 -3.018432,1.227031 1.578772,0.553808 3.158854,1.107654 4.741561,1.65752 -0.215206,-1.626011 -0.426513,-3.254662 -0.64043,-4.884615 -4.136566,2.191648 -5.586723,8.174691 -7.375473,12.119646 1.400291,-0.181168 2.797956,-0.359732 4.198245,-0.539372 -2.632597,-2.107646 -1.733631,-7.206166 1.135194,-8.620877 3.091923,-1.524971 0.381896,-6.136606 -2.699527,-4.615577"
       style="display:inline;fill:#362e2a;fill-opacity:1;fill-rule:nonzero;stroke:none;stroke-width:0.131236"
       id="path446" />
    <path
       d="m 133.02313,58.894347 c 2.75203,0.685052 5.06441,5.379385 2.90951,7.792823 1.39766,0.181169 2.79926,0.360848 4.19825,0.541981 -2.7284,-3.707397 -5.48962,-9.547439 -10.28629,-10.880791 0.2139,1.62601 0.4239,3.254662 0.63912,4.883313 1.53284,-0.866146 3.06699,-1.736272 4.59852,-2.605061 -1.08008,-0.139131 -2.15752,-0.279377 -3.23892,-0.417318 2.20871,2.391119 3.30715,5.581497 5.53423,7.993597 1.80318,1.952782 5.27438,-0.06808 4.46859,-2.60108 -0.88979,-2.795343 -2.03546,-5.824271 -4.62214,-7.458166 -2.92262,-1.849104 -5.60508,2.779569 -2.6982,4.615579 1.23361,0.780845 1.74806,2.950171 2.1667,4.263844 1.48821,-0.867449 2.97906,-1.733632 4.46464,-2.601081 -2.20607,-2.391119 -3.30714,-5.581497 -5.53291,-7.993597 -0.81759,-0.887164 -2.22576,-0.994788 -3.24021,-0.41732 -1.53154,0.866148 -3.067,1.736237 -4.59983,2.605026 -2.0276,1.149615 -1.56565,4.271729 0.64043,4.884614 1.48559,0.416017 2.67459,2.290081 3.55257,3.454131 1.2218,1.626009 2.33076,3.333379 3.53812,4.97386 0.95671,1.301841 2.95281,1.937046 4.19693,0.539375 4.75732,-5.328198 1.58008,-15.026559 -5.26782,-16.726041 -3.34653,-0.833372 -4.7678,4.322919 -1.42129,5.152312"
       style="display:inline;fill:#362e2a;fill-opacity:1;fill-rule:nonzero;stroke:none;stroke-width:0.131236"
       id="path448" />
    <path
       d="m 51.967746,178.14603 c -0.383209,5.24155 2.123404,10.78105 5.631346,14.57245 2.345191,2.53814 6.118231,-1.2533 3.780915,-3.77961 -2.606351,-2.81499 -4.346541,-6.92924 -4.064385,-10.79284 0.25066,-3.441 -5.097213,-3.42002 -5.347876,0"
       style="display:inline;fill:#362e2a;fill-opacity:1;fill-rule:nonzero;stroke:none;stroke-width:0.131236"
       id="path450" />
    <path
       d="m 66.74494,82.961737 0.01562,0.335936 c 0.08926,1.885854 2.252014,3.513202 4.02239,2.308449 0.141735,-0.09704 0.284771,-0.193068 0.426519,-0.290157 1.53284,-1.044653 1.660137,-2.799293 0.53938,-4.198267 -0.129941,-0.164057 -0.263791,-0.328112 -0.39371,-0.493433 -0.628619,1.522336 -1.261178,3.040714 -1.889801,4.564386 0.148282,0.01485 0.295299,0.03344 0.443578,0.04875 -0.629932,-0.260036 -1.261178,-0.522338 -1.89111,-0.783484 0.133848,0.165167 0.265094,0.331832 0.397643,0.496081 1.635203,2.044661 4.34392,0.120512 4.564394,-1.88981 0.03162,-0.295372 0.06428,-0.589259 0.09579,-0.88453 0.374025,-3.425261 -4.976475,-3.388504 -5.346563,0 -0.03162,0.295384 -0.06562,0.589271 -0.09714,0.88453 1.522338,-0.62861 3.042055,-1.259884 4.564393,-1.889795 -0.759856,-0.950146 -1.548588,-1.19556 -2.731026,-1.32941 -2.6011,-0.288686 -3.148352,2.98953 -1.889801,4.564389 0.129905,0.164057 0.263791,0.328113 0.393711,0.492125 0.179791,-1.398966 0.360884,-2.797944 0.54069,-4.196921 -0.141734,0.09559 -0.282167,0.19307 -0.426517,0.288685 1.342547,0.770354 2.685095,1.538069 4.023703,2.308425 l -0.01562,-0.335936 c -0.161413,-3.433106 -5.510606,-3.448879 -5.346563,0"
       style="display:inline;fill:#362e2a;fill-opacity:1;fill-rule:nonzero;stroke:none;stroke-width:0.131236"
       id="path452" />
    <path
       d="m 107.78906,77.734614 c 0.42126,0.419967 0.84253,0.694246 1.37404,0.958038 1.94886,0.965882 3.78353,-0.253344 4.02369,-2.308458 0.0368,-0.293885 0.0696,-0.586618 0.0998,-0.881919 -0.65486,0.859594 -1.30841,1.717896 -1.9646,2.577488 0.38978,-0.07893 0.75724,-0.194186 1.09057,-0.421258 -1.33861,-0.770354 -2.68245,-1.539406 -4.01976,-2.307156 l -0.009,0.198283 c -0.11676,3.448882 5.22976,3.438396 5.34656,0 l 0.009,-0.198283 c 0.0656,-1.942286 -2.35568,-3.448882 -4.02371,-2.30842 l 0.1877,-0.118266 c -1.24413,0.250738 -1.84126,1.444919 -1.9633,2.577463 -0.0327,0.295376 -0.0618,0.587957 -0.0985,0.881918 1.34123,-0.769052 2.68115,-1.536764 4.02108,-2.307119 l -0.29396,-0.123527 c -2.44625,-2.433123 -6.22978,1.347776 -3.77961,3.780903"
       style="display:inline;fill:#362e2a;fill-opacity:1;fill-rule:nonzero;stroke:none;stroke-width:0.131236"
       id="path454" />
  </g>
</svg>
