<svg width="46" height="22" viewBox="0 0 46 22" fill="none" xmlns="http://www.w3.org/2000/svg">
<mask id="path-1-outside-1" maskUnits="userSpaceOnUse" x="-0.783569" y="-0.108002" width="46" height="22" fill="black">
<rect fill="white" x="-0.783569" y="-0.108002" width="46" height="22"/>
<path d="M18.1722 1.27351V2.44049H15.9762V9.40872H14.6682V2.44049H12.5202V1.27351H18.1722Z"/>
<path d="M25.5204 9.40872C25.4804 9.32644 25.4244 9.20675 25.3524 9.04965C25.2804 8.89256 25.1964 8.71302 25.1004 8.51105C25.0124 8.30159 24.9124 8.07717 24.8004 7.83779C24.6964 7.59093 24.5884 7.33658 24.4764 7.07476H21.4044L20.3724 9.40872H19.0764L22.9524 0.891998C23.0004 0.996727 23.0844 1.18748 23.2044 1.46427C23.3324 1.74105 23.4804 2.07394 23.6484 2.46294C23.8244 2.84445 24.0164 3.27085 24.2244 3.74213C24.4404 4.20593 24.6564 4.67721 24.8724 5.15597C25.0964 5.63473 25.3124 6.10602 25.5204 6.56982C25.7364 7.03362 25.9324 7.46001 26.1084 7.84901C26.2844 8.238 26.4324 8.57089 26.5524 8.84767C26.6804 9.11698 26.7684 9.304 26.8164 9.40872H25.5204ZM21.8604 6.04243H24.0324C23.9204 5.79557 23.8124 5.55993 23.7084 5.33551C23.6124 5.10361 23.5204 4.89415 23.4324 4.70713C23.3524 4.51264 23.2804 4.34432 23.2164 4.20219C23.1524 4.06006 23.1044 3.94785 23.0724 3.86556C23.0644 3.8506 23.0444 3.79823 23.0124 3.70847C22.9884 3.6187 22.9684 3.53641 22.9524 3.4616C22.9364 3.53641 22.9124 3.6187 22.8804 3.70847C22.8484 3.79823 22.8284 3.8506 22.8204 3.86556L21.8604 6.04243Z"/>
<path d="M27.698 11.0919V9.93611C28.258 9.90619 28.714 9.72665 29.066 9.3975C29.426 9.06835 29.606 8.55593 29.606 7.86023V1.27351H30.926V7.89389C30.926 8.3951 30.846 8.84019 30.686 9.22919C30.526 9.61818 30.302 9.94733 30.014 10.2166C29.726 10.4934 29.382 10.7029 28.982 10.845C28.59 10.9946 28.162 11.0769 27.698 11.0919Z"/>
<path d="M0.216431 20.6297V12.4945H1.52443V15.9506H5.88043V12.4945H7.20043C7.20043 12.5917 7.20043 12.775 7.20043 13.0443C7.20043 13.3061 7.20043 13.6203 7.20043 13.9869C7.20043 14.3534 7.20043 14.7611 7.20043 15.21C7.20043 15.6513 7.19643 16.1039 7.18843 16.5677C7.18843 17.024 7.18843 17.4766 7.18843 17.9255C7.18843 18.3668 7.18843 18.7708 7.18843 19.1373C7.18843 19.5039 7.18843 19.8218 7.18843 20.0911C7.18843 20.3529 7.18843 20.5325 7.18843 20.6297H5.88043V17.1175H1.52443V20.6297H0.216431Z"/>
<path d="M26.0969 12.4945V21C25.9849 20.8653 25.7689 20.6484 25.4489 20.3492C25.1289 20.05 24.7609 19.7058 24.3449 19.3169C23.9289 18.9279 23.4849 18.5202 23.0129 18.0938C22.5489 17.6674 22.1089 17.2634 21.6929 16.8819C21.2769 16.4929 20.9129 16.1488 20.6009 15.8496C20.2889 15.5429 20.0809 15.3259 19.9769 15.1988L19.7489 14.907L19.7849 15.2661V20.6297H18.4649V12.113C18.5529 12.2177 18.6969 12.3673 18.8969 12.5618C19.1049 12.7563 19.3449 12.9845 19.6169 13.2463C19.8969 13.5006 20.2009 13.7774 20.5289 14.0767C20.8649 14.3759 21.2009 14.6788 21.5369 14.9856C21.8809 15.2923 22.2169 15.5952 22.5449 15.8945C22.8809 16.1862 23.1849 16.4592 23.4569 16.7136C23.7369 16.9679 23.9769 17.1923 24.1769 17.3868C24.3769 17.5813 24.5169 17.7272 24.5969 17.8245L24.8249 18.1386L24.7889 17.7571V12.4945H26.0969Z"/>
<path d="M29.4383 20.6297V12.4945H35.1503V13.6054H30.7583V15.9842H34.6703V17.1175H30.7583V19.4964H35.3183V20.6297H29.4383Z"/>
<path d="M41.5726 17.9479V20.6297H40.2526V17.9479C40.1966 17.8656 40.0846 17.6861 39.9166 17.4093C39.7566 17.1325 39.5646 16.8071 39.3406 16.4331C39.1246 16.0515 38.8886 15.6476 38.6326 15.2212C38.3846 14.7948 38.1486 14.3946 37.9246 14.0205C37.7086 13.639 37.5166 13.3099 37.3486 13.0331C37.1886 12.7563 37.0806 12.5768 37.0246 12.4945H38.5126C38.5846 12.6067 38.7126 12.8236 38.8966 13.1453C39.0806 13.4595 39.2846 13.8186 39.5086 14.2225C39.7326 14.619 39.9606 15.023 40.1926 15.4344C40.4246 15.8383 40.6206 16.1862 40.7806 16.4779L40.9126 16.8482C40.9446 16.7884 40.9726 16.7285 40.9966 16.6687C41.0206 16.6014 41.0446 16.5378 41.0686 16.4779C41.2366 16.1862 41.4326 15.8383 41.6566 15.4344C41.8806 15.023 42.1006 14.619 42.3166 14.2225C42.5406 13.8186 42.7406 13.4595 42.9166 13.1453C43.1006 12.8236 43.2286 12.6067 43.3006 12.4945H44.7766L41.5726 17.9479Z"/>
</mask>
<path d="M18.1722 1.27351V2.44049H15.9762V9.40872H14.6682V2.44049H12.5202V1.27351H18.1722Z" fill="black"/>
<path d="M25.5204 9.40872C25.4804 9.32644 25.4244 9.20675 25.3524 9.04965C25.2804 8.89256 25.1964 8.71302 25.1004 8.51105C25.0124 8.30159 24.9124 8.07717 24.8004 7.83779C24.6964 7.59093 24.5884 7.33658 24.4764 7.07476H21.4044L20.3724 9.40872H19.0764L22.9524 0.891998C23.0004 0.996727 23.0844 1.18748 23.2044 1.46427C23.3324 1.74105 23.4804 2.07394 23.6484 2.46294C23.8244 2.84445 24.0164 3.27085 24.2244 3.74213C24.4404 4.20593 24.6564 4.67721 24.8724 5.15597C25.0964 5.63473 25.3124 6.10602 25.5204 6.56982C25.7364 7.03362 25.9324 7.46001 26.1084 7.84901C26.2844 8.238 26.4324 8.57089 26.5524 8.84767C26.6804 9.11698 26.7684 9.304 26.8164 9.40872H25.5204ZM21.8604 6.04243H24.0324C23.9204 5.79557 23.8124 5.55993 23.7084 5.33551C23.6124 5.10361 23.5204 4.89415 23.4324 4.70713C23.3524 4.51264 23.2804 4.34432 23.2164 4.20219C23.1524 4.06006 23.1044 3.94785 23.0724 3.86556C23.0644 3.8506 23.0444 3.79823 23.0124 3.70847C22.9884 3.6187 22.9684 3.53641 22.9524 3.4616C22.9364 3.53641 22.9124 3.6187 22.8804 3.70847C22.8484 3.79823 22.8284 3.8506 22.8204 3.86556L21.8604 6.04243Z" fill="black"/>
<path d="M27.698 11.0919V9.93611C28.258 9.90619 28.714 9.72665 29.066 9.3975C29.426 9.06835 29.606 8.55593 29.606 7.86023V1.27351H30.926V7.89389C30.926 8.3951 30.846 8.84019 30.686 9.22919C30.526 9.61818 30.302 9.94733 30.014 10.2166C29.726 10.4934 29.382 10.7029 28.982 10.845C28.59 10.9946 28.162 11.0769 27.698 11.0919Z" fill="black"/>
<path d="M0.216431 20.6297V12.4945H1.52443V15.9506H5.88043V12.4945H7.20043C7.20043 12.5917 7.20043 12.775 7.20043 13.0443C7.20043 13.3061 7.20043 13.6203 7.20043 13.9869C7.20043 14.3534 7.20043 14.7611 7.20043 15.21C7.20043 15.6513 7.19643 16.1039 7.18843 16.5677C7.18843 17.024 7.18843 17.4766 7.18843 17.9255C7.18843 18.3668 7.18843 18.7708 7.18843 19.1373C7.18843 19.5039 7.18843 19.8218 7.18843 20.0911C7.18843 20.3529 7.18843 20.5325 7.18843 20.6297H5.88043V17.1175H1.52443V20.6297H0.216431Z" fill="black"/>
<path d="M26.0969 12.4945V21C25.9849 20.8653 25.7689 20.6484 25.4489 20.3492C25.1289 20.05 24.7609 19.7058 24.3449 19.3169C23.9289 18.9279 23.4849 18.5202 23.0129 18.0938C22.5489 17.6674 22.1089 17.2634 21.6929 16.8819C21.2769 16.4929 20.9129 16.1488 20.6009 15.8496C20.2889 15.5429 20.0809 15.3259 19.9769 15.1988L19.7489 14.907L19.7849 15.2661V20.6297H18.4649V12.113C18.5529 12.2177 18.6969 12.3673 18.8969 12.5618C19.1049 12.7563 19.3449 12.9845 19.6169 13.2463C19.8969 13.5006 20.2009 13.7774 20.5289 14.0767C20.8649 14.3759 21.2009 14.6788 21.5369 14.9856C21.8809 15.2923 22.2169 15.5952 22.5449 15.8945C22.8809 16.1862 23.1849 16.4592 23.4569 16.7136C23.7369 16.9679 23.9769 17.1923 24.1769 17.3868C24.3769 17.5813 24.5169 17.7272 24.5969 17.8245L24.8249 18.1386L24.7889 17.7571V12.4945H26.0969Z" fill="black"/>
<path d="M29.4383 20.6297V12.4945H35.1503V13.6054H30.7583V15.9842H34.6703V17.1175H30.7583V19.4964H35.3183V20.6297H29.4383Z" fill="black"/>
<path d="M41.5726 17.9479V20.6297H40.2526V17.9479C40.1966 17.8656 40.0846 17.6861 39.9166 17.4093C39.7566 17.1325 39.5646 16.8071 39.3406 16.4331C39.1246 16.0515 38.8886 15.6476 38.6326 15.2212C38.3846 14.7948 38.1486 14.3946 37.9246 14.0205C37.7086 13.639 37.5166 13.3099 37.3486 13.0331C37.1886 12.7563 37.0806 12.5768 37.0246 12.4945H38.5126C38.5846 12.6067 38.7126 12.8236 38.8966 13.1453C39.0806 13.4595 39.2846 13.8186 39.5086 14.2225C39.7326 14.619 39.9606 15.023 40.1926 15.4344C40.4246 15.8383 40.6206 16.1862 40.7806 16.4779L40.9126 16.8482C40.9446 16.7884 40.9726 16.7285 40.9966 16.6687C41.0206 16.6014 41.0446 16.5378 41.0686 16.4779C41.2366 16.1862 41.4326 15.8383 41.6566 15.4344C41.8806 15.023 42.1006 14.619 42.3166 14.2225C42.5406 13.8186 42.7406 13.4595 42.9166 13.1453C43.1006 12.8236 43.2286 12.6067 43.3006 12.4945H44.7766L41.5726 17.9479Z" fill="black"/>
<path d="M18.1722 1.27351V2.44049H15.9762V9.40872H14.6682V2.44049H12.5202V1.27351H18.1722Z" stroke="#060606" stroke-width="0.4" mask="url(#path-1-outside-1)"/>
<path d="M25.5204 9.40872C25.4804 9.32644 25.4244 9.20675 25.3524 9.04965C25.2804 8.89256 25.1964 8.71302 25.1004 8.51105C25.0124 8.30159 24.9124 8.07717 24.8004 7.83779C24.6964 7.59093 24.5884 7.33658 24.4764 7.07476H21.4044L20.3724 9.40872H19.0764L22.9524 0.891998C23.0004 0.996727 23.0844 1.18748 23.2044 1.46427C23.3324 1.74105 23.4804 2.07394 23.6484 2.46294C23.8244 2.84445 24.0164 3.27085 24.2244 3.74213C24.4404 4.20593 24.6564 4.67721 24.8724 5.15597C25.0964 5.63473 25.3124 6.10602 25.5204 6.56982C25.7364 7.03362 25.9324 7.46001 26.1084 7.84901C26.2844 8.238 26.4324 8.57089 26.5524 8.84767C26.6804 9.11698 26.7684 9.304 26.8164 9.40872H25.5204ZM21.8604 6.04243H24.0324C23.9204 5.79557 23.8124 5.55993 23.7084 5.33551C23.6124 5.10361 23.5204 4.89415 23.4324 4.70713C23.3524 4.51264 23.2804 4.34432 23.2164 4.20219C23.1524 4.06006 23.1044 3.94785 23.0724 3.86556C23.0644 3.8506 23.0444 3.79823 23.0124 3.70847C22.9884 3.6187 22.9684 3.53641 22.9524 3.4616C22.9364 3.53641 22.9124 3.6187 22.8804 3.70847C22.8484 3.79823 22.8284 3.8506 22.8204 3.86556L21.8604 6.04243Z" stroke="#060606" stroke-width="0.4" mask="url(#path-1-outside-1)"/>
<path d="M27.698 11.0919V9.93611C28.258 9.90619 28.714 9.72665 29.066 9.3975C29.426 9.06835 29.606 8.55593 29.606 7.86023V1.27351H30.926V7.89389C30.926 8.3951 30.846 8.84019 30.686 9.22919C30.526 9.61818 30.302 9.94733 30.014 10.2166C29.726 10.4934 29.382 10.7029 28.982 10.845C28.59 10.9946 28.162 11.0769 27.698 11.0919Z" stroke="#060606" stroke-width="0.4" mask="url(#path-1-outside-1)"/>
<path d="M0.216431 20.6297V12.4945H1.52443V15.9506H5.88043V12.4945H7.20043C7.20043 12.5917 7.20043 12.775 7.20043 13.0443C7.20043 13.3061 7.20043 13.6203 7.20043 13.9869C7.20043 14.3534 7.20043 14.7611 7.20043 15.21C7.20043 15.6513 7.19643 16.1039 7.18843 16.5677C7.18843 17.024 7.18843 17.4766 7.18843 17.9255C7.18843 18.3668 7.18843 18.7708 7.18843 19.1373C7.18843 19.5039 7.18843 19.8218 7.18843 20.0911C7.18843 20.3529 7.18843 20.5325 7.18843 20.6297H5.88043V17.1175H1.52443V20.6297H0.216431Z" stroke="#060606" stroke-width="0.4" mask="url(#path-1-outside-1)"/>
<path d="M26.0969 12.4945V21C25.9849 20.8653 25.7689 20.6484 25.4489 20.3492C25.1289 20.05 24.7609 19.7058 24.3449 19.3169C23.9289 18.9279 23.4849 18.5202 23.0129 18.0938C22.5489 17.6674 22.1089 17.2634 21.6929 16.8819C21.2769 16.4929 20.9129 16.1488 20.6009 15.8496C20.2889 15.5429 20.0809 15.3259 19.9769 15.1988L19.7489 14.907L19.7849 15.2661V20.6297H18.4649V12.113C18.5529 12.2177 18.6969 12.3673 18.8969 12.5618C19.1049 12.7563 19.3449 12.9845 19.6169 13.2463C19.8969 13.5006 20.2009 13.7774 20.5289 14.0767C20.8649 14.3759 21.2009 14.6788 21.5369 14.9856C21.8809 15.2923 22.2169 15.5952 22.5449 15.8945C22.8809 16.1862 23.1849 16.4592 23.4569 16.7136C23.7369 16.9679 23.9769 17.1923 24.1769 17.3868C24.3769 17.5813 24.5169 17.7272 24.5969 17.8245L24.8249 18.1386L24.7889 17.7571V12.4945H26.0969Z" stroke="#060606" stroke-width="0.4" mask="url(#path-1-outside-1)"/>
<path d="M29.4383 20.6297V12.4945H35.1503V13.6054H30.7583V15.9842H34.6703V17.1175H30.7583V19.4964H35.3183V20.6297H29.4383Z" stroke="#060606" stroke-width="0.4" mask="url(#path-1-outside-1)"/>
<path d="M41.5726 17.9479V20.6297H40.2526V17.9479C40.1966 17.8656 40.0846 17.6861 39.9166 17.4093C39.7566 17.1325 39.5646 16.8071 39.3406 16.4331C39.1246 16.0515 38.8886 15.6476 38.6326 15.2212C38.3846 14.7948 38.1486 14.3946 37.9246 14.0205C37.7086 13.639 37.5166 13.3099 37.3486 13.0331C37.1886 12.7563 37.0806 12.5768 37.0246 12.4945H38.5126C38.5846 12.6067 38.7126 12.8236 38.8966 13.1453C39.0806 13.4595 39.2846 13.8186 39.5086 14.2225C39.7326 14.619 39.9606 15.023 40.1926 15.4344C40.4246 15.8383 40.6206 16.1862 40.7806 16.4779L40.9126 16.8482C40.9446 16.7884 40.9726 16.7285 40.9966 16.6687C41.0206 16.6014 41.0446 16.5378 41.0686 16.4779C41.2366 16.1862 41.4326 15.8383 41.6566 15.4344C41.8806 15.023 42.1006 14.619 42.3166 14.2225C42.5406 13.8186 42.7406 13.4595 42.9166 13.1453C43.1006 12.8236 43.2286 12.6067 43.3006 12.4945H44.7766L41.5726 17.9479Z" stroke="#060606" stroke-width="0.4" mask="url(#path-1-outside-1)"/>
<path d="M9.74999 14.7571L12.75 13.074L15.75 14.7571V18.0866L12.75 19.7697L9.74999 18.0866V14.7571Z" stroke="#FBB710" stroke-width="1.5"/>
</svg>
